# xmcd
#
# Track frame offsets:
#	150
#	9943
#	22728
#	34913
#	55563
#	66566
#	82577
#	101708
#	110384
#	119072
#	131259
#	142667
#	159809
#	168554
#	178948
#
# Disc length: 2555 seconds
#
# Revision: 0
# Processed by: cddbd v1.4PL0 Copyright (c) Steve Scherf et al.
# Submitted via: dBpowerAMP V4.0
#
DISCID=b309f90f
DTITLE=Johnny Cash - American Recordings IIa - American Greenbacks
DYEAR=2001
DGENRE=Country
TTITLE0=What On Earth
TTITLE1=The Drifter
TTITLE2=I Witnessed A Crime (with Billy Gibbons)
TTITLE3=Banks Of The Ohio
TTITLE4=The Next Time I'm In Town
TTITLE5=Breaking Bread
TTITLE6=To Beat The Devil
TTITLE7=The Caretaker
TTITLE8=The Wonder Of You
TTITLE9=East Virginia Blues
TTITLE10=Bury Me Not
TTITLE11=Old Chunk Of Coal
TTITLE12=Go On Blue
TTITLE13=Flesh And Blood
TTITLE14=Hidden
EXTD=
EXTT0=
EXTT1=
EXTT2=
EXTT3=
EXTT4=
EXTT5=
EXTT6=
EXTT7=
EXTT8=
EXTT9=
EXTT10=
EXTT11=
EXTT12=
EXTT13=
EXTT14=
PLAYORDER=
